<svg width="574" height="170" viewBox="0 0 574 170" fill="none" xmlns="http://www.w3.org/2000/svg">
<path d="M0.75 37.625H51.5V48.75H32.5V122H19.25V48.75H0.75V37.625ZM78.025 122H65.025V59H77.15L77.65 69.875C81.0667 61.9583 86.6083 57.9583 94.275 57.875C95.3583 57.875 96.4833 58 97.65 58.25L96.275 71.125C94.3583 70.375 92.525 70 90.775 70C88.6917 70 86.775 70.5417 85.025 71.625C80.3583 74.625 78.025 80.2917 78.025 88.625V122ZM161.925 123.625C154.508 123.542 150.383 119.583 149.55 111.75C148.967 112.667 148.342 113.625 147.675 114.625C143.258 120.458 137.758 123.375 131.175 123.375C128.675 123.375 126.3 123.042 124.05 122.375C115.883 119.792 111.8 113 111.8 102V59.5H124.8V100.625C124.8 101.708 124.883 102.75 125.05 103.75C125.883 110.083 129.05 113.25 134.55 113.25C136.467 113.25 138.258 112.75 139.925 111.75C145.008 108.75 147.55 102.417 147.55 92.75V59.5H160.55V106.5C160.55 107.333 160.592 108.083 160.675 108.75C161.092 111.917 162.717 113.5 165.55 113.5C166.217 113.5 166.842 113.458 167.425 113.375L167.8 122.875C165.717 123.375 163.758 123.625 161.925 123.625ZM276.625 122H263.25L289.125 37.625H305.625L331 122H317.25L311.875 103.375H282.125L276.625 122ZM291.875 70L285 93.25H309L302.125 69.375C301.708 67.7917 300.042 61.125 297.125 49.375C296.625 51.2083 295.833 54.2917 294.75 58.625C293.333 64.4583 292.375 68.25 291.875 70ZM398.525 113.375L399.025 122.875C397.025 123.292 395.233 123.5 393.65 123.5C385.15 123.417 380.817 118.667 380.65 109.25V80.875C380.65 79.2083 380.483 77.6667 380.15 76.25C378.983 70.9167 376.108 68.25 371.525 68.25C369.775 68.25 368.067 68.7083 366.4 69.625C361.15 72.625 358.525 79.0417 358.525 88.875V122H345.525V59.5H358.025L358.275 68.125C362.358 61.375 368.067 57.9583 375.4 57.875C378.4 57.875 381.15 58.4583 383.65 59.625C390.317 62.875 393.65 69.5 393.65 79.5V108.375C393.65 109.042 393.692 109.667 393.775 110.25C394.108 112.75 395.692 113.792 398.525 113.375ZM438.175 94.375C439.508 94.375 440.758 94.125 441.925 93.625C446.342 91.875 448.55 87.875 448.55 81.625C448.55 79.125 448.175 76.9167 447.425 75C445.592 70.6667 442.425 68.5 437.925 68.5C436.675 68.5 435.467 68.7083 434.3 69.125C429.8 70.875 427.55 75.0417 427.55 81.625C427.55 84.0417 427.967 86.2083 428.8 88.125C430.633 92.2917 433.758 94.375 438.175 94.375ZM438.175 58.5C440.592 58.5 442.758 58.7917 444.675 59.375L467.8 58.5V68.625L457.425 68.25C460.092 72 461.467 76.4583 461.55 81.625C461.55 86.9583 460.133 91.5833 457.3 95.5C452.967 101.5 446.592 104.5 438.175 104.5C435.175 104.5 432.217 104.042 429.3 103.125C427.133 104.375 425.967 105.917 425.8 107.75C425.883 110.667 428.175 112.125 432.675 112.125L444.55 111.875C449.467 111.875 453.758 112.667 457.425 114.25C463.675 117.083 466.8 121.708 466.8 128.125C466.8 132.042 465.508 135.625 462.925 138.875C457.592 145.458 448.717 148.75 436.3 148.75C431.3 148.75 426.842 148.042 422.925 146.625C415.675 143.875 412.05 139.542 412.05 133.625C412.133 128.792 415.133 124.333 421.05 120.25C417.3 117.833 415.383 114.542 415.3 110.375C415.383 105.708 417.592 101.875 421.925 98.875C417.092 94.7917 414.633 89.125 414.55 81.875C414.55 76.4583 415.925 71.75 418.675 67.75C423.008 61.5833 429.508 58.5 438.175 58.5ZM437.925 138.5C440.925 138.5 443.633 138.167 446.05 137.5C451.467 135.917 454.175 133.125 454.175 129.125C454.175 128.792 454.133 128.417 454.05 128C453.383 124.25 449.675 122.417 442.925 122.5L431.175 122.75H429.425C426.008 125.083 424.258 127.708 424.175 130.625C424.175 131.125 424.258 131.667 424.425 132.25C425.508 136.417 430.008 138.5 437.925 138.5ZM499.075 123.5C498.325 123.5 497.533 123.458 496.7 123.375C488.283 122.542 484.075 117.167 484.075 107.25V31.375H497.075V106C497.158 110.5 498.867 112.833 502.2 113C503.45 113 504.825 112.75 506.325 112.25L508.825 122C505.492 123 502.242 123.5 499.075 123.5ZM569.6 117.25C562.933 121.417 555.892 123.542 548.475 123.625C542.308 123.625 536.892 122.042 532.225 118.875C523.892 113.125 519.725 103.583 519.725 90.25C519.725 81.6667 521.642 74.5417 525.475 68.875C530.392 61.5417 537.392 57.875 546.475 57.875C546.975 57.875 547.517 57.875 548.1 57.875C563.267 58.5417 570.85 69.25 570.85 90V94H533.225C533.475 96.8333 533.975 99.4583 534.725 101.875C537.308 109.292 542.308 113 549.725 113C554.725 113 560.058 111.5 565.725 108.5L569.6 117.25ZM546.35 68C545.517 68 544.683 68.0833 543.85 68.25C538.183 69.6667 534.725 75.0417 533.475 84.375L557.725 84.125C557.725 81.9583 557.558 79.9167 557.225 78C555.808 71.3333 552.183 68 546.35 68Z" fill="white"/>
<path d="M198.923 101.326H192.216V94.6174H188.376V105.165H198.923V101.326Z" fill="white"/>
<path d="M244.7 55.5481H248.54V45H237.993V48.8397H244.7V55.5481Z" fill="white"/>
<path d="M192.216 48.8386L198.923 48.8397V45H188.376V55.5481H192.216V48.8386Z" fill="white"/>
<path d="M244.7 101.326H237.993V105.165H248.54V94.6174H244.7V101.326Z" fill="white"/>
<path d="M234.454 113.072C231.459 111.952 228.049 108.928 228.049 106.672C228.049 105.178 228.049 103.312 228.049 100.752C229.969 98.6196 232.849 95.4723 233.809 90.0328C236.048 89.2328 237.328 87.9529 238.928 82.3534C240.631 76.3901 236.368 76.5939 236.368 76.5939C236.368 76.5939 236.368 73.3942 236.368 70.6218C236.368 65.9284 234.184 52.0632 218.235 52.0632C202.289 52.0632 200.104 65.9284 200.104 70.6218C200.104 73.394 200.104 76.5939 200.104 76.5939C200.104 76.5939 195.842 76.3901 197.544 82.3534C199.141 87.9529 200.421 89.2328 202.661 90.0328C203.621 95.4723 206.503 98.6196 208.423 100.752C208.423 103.312 208.423 105.178 208.423 106.672C208.423 108.928 204.741 112.112 202.019 113.072C197.634 114.618 186.7 115.708 184 125H252.466C249.756 115.735 238.806 114.701 234.454 113.072Z" fill="white"/>
</svg>
